<svg width="24" height="24" viewBox="0 0 24 24" fill="none" xmlns="http://www.w3.org/2000/svg">
<path d="M15.0911 10.4092C15.9195 10.4092 16.5911 9.73761 16.5911 8.90918C16.5911 8.08075 15.9195 7.40918 15.0911 7.40918C14.2626 7.40918 13.5911 8.08075 13.5911 8.90918C13.5911 9.73761 14.2626 10.4092 15.0911 10.4092Z" fill="black"/>
<path d="M3.5 16.57C3.51835 17.6187 3.94787 18.6182 4.69604 19.3533C5.4442 20.0884 6.45115 20.5002 7.5 20.5H10.98M3.5 16.57V7.5C3.5 6.43913 3.92143 5.42172 4.67157 4.67157C5.42172 3.92143 6.43913 3.5 7.5 3.5H16.5C17.5609 3.5 18.5783 3.92143 19.3284 4.67157C20.0786 5.42172 20.5 6.43913 20.5 7.5V10.98M3.5 16.57L3.678 16.37L6.884 12.543C7.07172 12.319 7.30626 12.1388 7.57112 12.0152C7.83598 11.8916 8.12471 11.8275 8.417 11.8275C8.70929 11.8275 8.99802 11.8916 9.26288 12.0152C9.52774 12.1388 9.76228 12.319 9.95 12.543L11.192 14.025" stroke="black" stroke-width="1.5" stroke-linecap="round" stroke-linejoin="round"/>
<path fill-rule="evenodd" clip-rule="evenodd" d="M17.5 23C18.9587 23 20.3576 22.4205 21.3891 21.3891C22.4205 20.3576 23 18.9587 23 17.5C23 16.0413 22.4205 14.6424 21.3891 13.6109C20.3576 12.5795 18.9587 12 17.5 12C16.0413 12 14.6424 12.5795 13.6109 13.6109C12.5795 14.6424 12 16.0413 12 17.5C12 18.9587 12.5795 20.3576 13.6109 21.3891C14.6424 22.4205 16.0413 23 17.5 23ZM17.5 14.007C17.6326 14.007 17.7598 14.0597 17.8536 14.1534C17.9473 14.2472 18 14.3744 18 14.507V17H20.493C20.6256 17 20.7528 17.0527 20.8466 17.1464C20.9403 17.2402 20.993 17.3674 20.993 17.5C20.993 17.6326 20.9403 17.7598 20.8466 17.8536C20.7528 17.9473 20.6256 18 20.493 18H18V20.494C18 20.6266 17.9473 20.7538 17.8536 20.8476C17.7598 20.9413 17.6326 20.994 17.5 20.994C17.3674 20.994 17.2402 20.9413 17.1464 20.8476C17.0527 20.7538 17 20.6266 17 20.494V18H14.507C14.3744 18 14.2472 17.9473 14.1534 17.8536C14.0597 17.7598 14.007 17.6326 14.007 17.5C14.007 17.3674 14.0597 17.2402 14.1534 17.1464C14.2472 17.0527 14.3744 17 14.507 17H17V14.507C17 14.3744 17.0527 14.2472 17.1464 14.1534C17.2402 14.0597 17.3674 14.007 17.5 14.007Z" fill="black"/>
</svg>
